<svg xmlns="http://www.w3.org/2000/svg" viewBox="0 0 281.19 68.91"><defs><style>.cls-1{fill:#fff;}</style></defs><g id="Layer_2" data-name="Layer 2"><g id="レイヤー_1" data-name="レイヤー 1"><path class="cls-1" d="M127.15,67.07c0,.55-.68.82-2,.82H102.6c-1.47,0-2.2-.27-2.2-.83s.43-.83,1.29-.83c1.35,0,2.8,0,4.33-.09,1.91-.06,2.94-.53,3.09-1.43a42.47,42.47,0,0,0,.23-5.75V15.67a17.9,17.9,0,0,0-.18-3.49c-.13-.37-.56-.56-1.3-.56-.32,0-2.33.16-6.06.46-.74.07-1.24.1-1.48.1-.75,0-1.12-.22-1.12-.65s.36-.77,1.1-.83A25.92,25.92,0,0,0,109,8.07,23,23,0,0,0,116.09,3a3.14,3.14,0,0,1,1.38-.83c.49,0,.73.31.73.92V61.62a12.3,12.3,0,0,0,.32,3.87c.22.37,1,.59,2.26.65h5.08Q127.15,66.14,127.15,67.07Z"/><path class="cls-1" d="M180.74,47q0,11.82-9,18.08-5.44,3.8-14.11,3.79t-12.73-4.52a8.6,8.6,0,0,1-2.22-5.91,6.24,6.24,0,0,1,1.85-4.66,6.58,6.58,0,0,1,4.8-1.79,6,6,0,0,1,4,1.37,4.31,4.31,0,0,1,1.61,3.39q0,3.41-4.52,5.14c-1.35.49-2,1-2,1.65,0,1,.91,1.85,2.72,2.61a15.35,15.35,0,0,0,6,1.15q6.45,0,9.68-4.42,4.42-6.08,4.43-16.38,0-7.55-3.51-11.68t-10-4.14q-5,0-11,3.78.56-20.76.83-26.2c.07-2.09.53-3.37,1.39-3.83s3.19-.69,7-.69h9.78a63.07,63.07,0,0,0,7.42-.22,1.72,1.72,0,0,0,1.34-1.49C174.8.69,175.24,0,175.85,0s.92.34.92,1a4.37,4.37,0,0,1-.09,1l-.18,2.11q-.47,5.13-1.89,6.36c-1,.82-3.28,1.24-7,1.24H150q-.36,3.15-.64,19a25.31,25.31,0,0,1,11-2.49q9.51,0,15,5T180.74,47Z"/><path class="cls-1" d="M232.4,36.9A48.34,48.34,0,0,1,230,52.39a30.79,30.79,0,0,1-6.69,11.72,15.13,15.13,0,0,1-11.53,4.8q-9.58,0-15.82-9.41t-6.22-24.08q0-17,8.76-26.75a16.65,16.65,0,0,1,12.91-5.9q9,0,14.39,8.21Q232.4,21.12,232.4,36.9Zm-10-3.32q0-13.75-3-22.7-2.31-6.83-8.12-6.82-11.62,0-11.62,30.9,0,32.37,12.27,32.38,5.72,0,8.21-9.41Q222.43,49.35,222.43,33.58Z"/><path class="cls-1" d="M281.19,50.46q0,.27-.18,1.47-.47,3-1.48,15l-.09,1.11q-9.51-.47-21.68-.47c-4.37,0-8.45.08-12.27.23s-5.47.24-5,.24q-2.49,0-2.49-.93,0-.74,4.8-4.62,11.52-9.42,16.42-15.33a36.69,36.69,0,0,0,8.48-24.11q0-9.33-3.87-14.14a10,10,0,0,0-8.3-3.69,10.81,10.81,0,0,0-8.3,3.23,7.28,7.28,0,0,0-2.4,5c0,1,.83,1.6,2.49,1.66q6.45.27,6.45,5.62,0,5.09-5.35,5.08A7.19,7.19,0,0,1,243,23.71a8.08,8.08,0,0,1-2-5.81,13.8,13.8,0,0,1,4.8-11q4.8-4.15,12.64-4.15a18,18,0,0,1,13,5q6,5.81,6,15.13a29.75,29.75,0,0,1-6.83,18.86q-6.82,8.63-23,18.77,6.09-.18,15.32-.18,7.65,0,9.68-.23a9.09,9.09,0,0,0,3.6-1.16q1.29-.82,2.21-6.18c.43-2.46,1.05-3.69,1.85-3.69C280.88,49.07,281.19,49.53,281.19,50.46Z"/><path class="cls-1" d="M8.71,4.9l.4-.4c.06-.07.16-.18.26-.18s.07,0,.26.15l.62.51a.31.31,0,0,1,.15.26c0,.16-.29.35-.48.47,0,.63.1,3.55.1,4a.63.63,0,0,1-.69.68c-.52,0-.5-.31-.49-.55H3.64c0,.47-.4.64-.72.64s-.51-.24-.51-.54c0-.1.15-2.43.15-2.58,0-.3,0-1.64,0-1.9A8.65,8.65,0,0,1,.05,7.36l0,0A20.86,20.86,0,0,0,3.64,2a6.46,6.46,0,0,0,.21-.91l1.36.85c.06,0,.15.11.15.19s-.05.13-.47.28c-.1.16-.12.17-.22.35H6.44L7,2.34a.74.74,0,0,1,.3-.16.69.69,0,0,1,.25.14l.69.52a.34.34,0,0,1,.16.26c0,.21-.48.34-.65.38s-1.13,1-1.33,1.14-.31.22-.39.28ZM2.56,10.48c0,.14,0,.26,0,.43,0,1.61-.82,2.56-1.56,2.56a.71.71,0,0,1-.7-.63c0-.44.3-.6.86-.89a3.3,3.3,0,0,0,1.3-1.47ZM5.69,4.9a17.32,17.32,0,0,0,.74-1.84h-2c-.63.9-1,1.34-1.17,1.54l.58.3ZM5.63,7.16V5.22h-2V7.16Zm0,2.32v-2h-2v2ZM4.31,10.62a2.71,2.71,0,0,1,1.16,1.89.85.85,0,0,1-.83.85.55.55,0,0,1-.59-.61c0-.15.15-.76.16-.89a3.46,3.46,0,0,0,.07-.64,2.71,2.71,0,0,0-.07-.59Zm2.44,0c.53.21,1.81,1,1.81,1.91a.69.69,0,0,1-.68.74c-.53,0-.6-.38-.71-1.06a4,4,0,0,0-.5-1.54Zm0-5.41V7.16H8.84V5.22Zm0,2.26v2H8.84v-2Zm2.19,3.08c1.9.48,2.88,1.32,2.88,2s-.41.78-.64.78-.46-.12-1.1-1.22a8,8,0,0,0-1.19-1.52Z"/><path class="cls-1" d="M24.81,7.66a10.12,10.12,0,0,1-5.13-5,13.54,13.54,0,0,1-6.45,5.76l0-.07c3-2.3,5.47-5.5,5.61-7.25l1.47.73c.12.07.19.11.19.2s-.06.18-.6.36a8.85,8.85,0,0,0,3.85,3.24,7.83,7.83,0,0,0,2.4.6v.08A3,3,0,0,0,24.81,7.66Zm-6.13-.75c0,2.61-.08,5.07-4.58,6.39l0-.07c3.2-2,3.38-3.85,3.38-5.47a9.53,9.53,0,0,0-.18-1.84l1.6.43c.06,0,.17.08.17.17S18.83,6.82,18.68,6.91Zm3-.08c0,.65,0,2.72,0,3.2s.12,2.45.12,2.71c0,.52-.2.72-.8.72s-.5-.2-.5-.47,0-1,0-1.13c0,0,0-4.62,0-4.82a10.68,10.68,0,0,0-.22-1.2l1.52.4c.08,0,.19,0,.19.16S21.79,6.78,21.71,6.83Z"/><path class="cls-1" d="M36.32,12.34a17.21,17.21,0,0,1-2.85.25c-.48,0-2.55,0-3.53-.73a2,2,0,0,1-.84-1.56c0-.86.56-2.15,2.56-3.39a2.93,2.93,0,0,1-.56-1.65A12.78,12.78,0,0,0,31,3c-.17-.72-.45-.82-1.21-1.07a1.71,1.71,0,0,1,.91-.29,3.24,3.24,0,0,1,1.64.62.37.37,0,0,1,.15.31A1.06,1.06,0,0,1,32.4,3a4.87,4.87,0,0,0-.31,2,4.69,4.69,0,0,0,.21,1.59,18,18,0,0,1,2.41-1.11c.19-.08.29-.15.29-.29a2.44,2.44,0,0,0-.13-.47c1.4.29,1.44,1.12,1.44,1.23,0,.49-.32.53-1,.6-2,.22-5.78,1.85-5.78,3.6a1.34,1.34,0,0,0,.49,1,3.64,3.64,0,0,0,2.1.44,18.22,18.22,0,0,0,3-.3,2.66,2.66,0,0,1,.6-.08c.12,0,1,0,1,.69A.55.55,0,0,1,36.32,12.34Z"/><path class="cls-1" d="M49.38,4l.37-.5c.06-.08.11-.14.19-.14a.83.83,0,0,1,.29.16l.66.46c.06,0,.2.14.2.23s-.26.4-.39.52a3.55,3.55,0,0,0,0,.65c0,1.83.12,6.9.13,7a1.62,1.62,0,0,1,0,.32.68.68,0,0,1-.75.64c-.55,0-.55-.22-.53-1H43.07c0,.2,0,1-.83,1a.45.45,0,0,1-.48-.52c0-.15.05-.8.05-.93,0-1.48.09-3.64.09-5.84a11.29,11.29,0,0,0-.2-2.91L43.15,4H45a9.58,9.58,0,0,0,.55-2.34,4.56,4.56,0,0,0,0-.57l1.67.68A.28.28,0,0,1,47.3,2c0,.2-.24.25-.4.25-.27.28-1.41,1.51-1.68,1.74Zm-6.31.32V7.91h6.46V4.3Zm0,3.93v3.84h6.46V8.23Z"/><path class="cls-1" d="M63.7,4.59c-.25.16-.26.21-.36.68-.44,2.36-.88,3.87-2,5.21a7.71,7.71,0,0,1-3.69,2.42l0-.06c3.51-2.56,4.28-4.69,4.7-8.6a32.27,32.27,0,0,0-4.46.39,1.37,1.37,0,0,1-.29,0c-.09,0-.47-.16-.55-.17a9.08,9.08,0,0,1,0,1.34c0,.26.06,1.44.06,1.71s-.19.71-.51.71-.61-.55-.61-1c0-.18,0-.88,0-1a13.79,13.79,0,0,0-.15-2,1.36,1.36,0,0,0-.79-.8,1.61,1.61,0,0,1,.62-.18,2,2,0,0,1,1.06.5,1.23,1.23,0,0,0,.59.13c.47,0,4.64-.27,5-.37.11,0,.17-.1.4-.32a.3.3,0,0,1,.16-.08c.12,0,1.2.81,1.2,1.17C64,4.38,63.92,4.44,63.7,4.59Z"/><path class="cls-1" d="M75.37,3.66a4.59,4.59,0,0,0-.86.8c-.22.22-1.14,1.26-1.34,1.48.23.13.7.45.7.64s-.14.46-.15.54,0,.82,0,1.67c0,.52.09,2.81.09,3.27s-.12.92-.52.92-.73-.7-.73-1.06c0-.13.12-.73.13-.85a17.26,17.26,0,0,0,.11-2.27,16.39,16.39,0,0,0-.08-2c0-.08,0-.08-.17-.19a11.68,11.68,0,0,1-4.62,3l0-.08c2.72-1.66,6.28-6.16,6.28-6.7,0-.34-.36-.64-.67-.9a4.65,4.65,0,0,1,.59,0,2.26,2.26,0,0,1,1.75,1.35C75.79,3.38,75.73,3.42,75.37,3.66Z"/><path class="cls-1" d="M85.42,5.39c-.23,0-.4-.19-.86-.64a6.78,6.78,0,0,0-2.22-1.63c.24,0,.4,0,.65,0,.45,0,3,.19,3,1.67A.61.61,0,0,1,85.42,5.39Zm1.2,4.44c-.5.39-1.3,1-1.75,1.37-.08.07-.39.43-.47.47a.33.33,0,0,1-.18.05c-.48,0-1.43-1.21-1.43-1.86a2.81,2.81,0,0,1,.09-.63c.43.72.83.91,1.06.91a17.94,17.94,0,0,0,3.08-2,29.23,29.23,0,0,0,4.17-4l0,0C91,5.06,89.7,7.43,86.62,9.83Z"/><path class="cls-1" d="M33.22,37.41c0,.51-.23.76-.7.76s-.81-.51-1-1.53l-.24-2.12a10.5,10.5,0,0,0-1.35-3.59,5.82,5.82,0,0,0-4.07-2.48,13,13,0,0,0-2.94-.29q-2.78.07-3.36.12V63.85c0,1.41.37,2.3,1.12,2.65a10.64,10.64,0,0,0,3.3.36c.47,0,.7.2.7.5s-.31.5-.94.5a4.91,4.91,0,0,1-.82-.06q-3.54-.12-5-.12c-1.3,0-2.51,0-3.65.09s-2.59.09-4.36.09c-.91,0-1.36-.16-1.36-.47s.85-.55,2.54-.59c1.21,0,2-.26,2.35-.77a5.76,5.76,0,0,0,.3-2.42V28.28c-3.89,0-6.31.23-7.25.58-2.47.91-3.93,3.32-4.36,7.25-.11,1.18-.39,1.77-.82,1.77s-.71-.42-.71-1.24c0-.43,0-.86.06-1.3L.77,34c.12-1.81.29-4.18.53-7.13H4L16,27q2.11.06,6.59,0l9.78-.18c.08,2.2.33,5.46.77,9.78a2.81,2.81,0,0,0,0,.44A2.35,2.35,0,0,1,33.22,37.41Z"/><path class="cls-1" d="M62.09,67.45c0,.31-.34.47-1,.47H50.36c-.51,0-.76-.16-.76-.47s.74-.42,2.24-.42c.9,0,1.42-.1,1.56-.32a6.45,6.45,0,0,0,.2-2.2V52.58c0-3.56-.15-5.78-.47-6.64q-1-2.7-4.42-2.7a5.39,5.39,0,0,0-4.59,2.52,7.27,7.27,0,0,0-.59,3.65v15a13.61,13.61,0,0,0,.06,1.82c0,.39.2.62.47.68a20.61,20.61,0,0,0,2.53.14c.48,0,.71.16.71.48s-.2.41-.59.41H41.47c-3.26,0-5.07,0-5.42,0h-.59c-.43,0-.65-.12-.65-.36s.22-.41.65-.41h.89l.88-.06c.9,0,1.37-.23,1.41-.82V39.78c0-6.29-.1-9.7-.29-10.21s-1.2-.61-2.89-.65c-.94,0-1.41-.14-1.41-.43s.1-.4.29-.44a19.59,19.59,0,0,1,2-.13,13.66,13.66,0,0,0,5.77-1.41,5.43,5.43,0,0,1,.82-.3c.28.48.41,2,.41,4.54V45.18a8.16,8.16,0,0,1,7.07-3.77q4.71,0,6.72,2.59a7,7,0,0,1,1.23,3.65,37.75,37.75,0,0,1,.12,4V66.44c0,.4,1.06.59,3.07.59C61.91,67.11,62.09,67.25,62.09,67.45Z"/><path class="cls-1" d="M86,61.38a5.32,5.32,0,0,1-.91,2.09,12.72,12.72,0,0,1-1.86,2.44,9,9,0,0,1-6.77,2.6,11.63,11.63,0,0,1-8.87-3.83A13.42,13.42,0,0,1,64,55.19a14.56,14.56,0,0,1,3.39-9.83,10.67,10.67,0,0,1,8.45-4,10.35,10.35,0,0,1,7,2.45,8.47,8.47,0,0,1,3,6.27,29.78,29.78,0,0,1-5,.23H76.75l-7.07.18a25.41,25.41,0,0,0-.29,3.7c0,3.95.75,7,2.27,9.12a7.36,7.36,0,0,0,6.39,3.2,6.13,6.13,0,0,0,3.77-1.06,13,13,0,0,0,3.06-4.06.71.71,0,0,1,.65-.47C85.84,61,86,61.1,86,61.38Zm-5.13-12q-.23-7.06-5.06-7.07t-6,7.07Z"/></g></g></svg>