<svg xmlns="http://www.w3.org/2000/svg" viewBox="0 0 25.99 25.99"><defs><style>.cls-1{fill:#fff}</style></defs><g id="Layer_2" data-name="Layer 2"><g id="レイヤー_1" data-name="レイヤー 1"><path class="cls-1" d="M16.05 17.73a.84.84 0 00-1.12-.06L13.35 19a.84.84 0 01-1.07 0 21.09 21.09 0 01-2.83-2.4 20.51 20.51 0 01-2.39-2.83.84.84 0 010-1.07l1.28-1.58A.84.84 0 008.28 10l-3-3a.83.83 0 00-1.13 0L.3 10.05a.84.84 0 00-.2 1s.51 1 1 1.84a37.57 37.57 0 005.29 6.71 37.48 37.48 0 006.67 5.31c.8.47 1.84 1 1.84 1a.83.83 0 001-.2l3.19-3.79a.85.85 0 00-.05-1.14zm.75-4.06l1.26-.2a6.62 6.62 0 00-1.87-3.66 6.7 6.7 0 00-3.67-1.88l-.2 1.26a5.44 5.44 0 014.48 4.48zm5.07-9.54A14.67 14.67 0 0013.77 0l-.2 1.26a13.44 13.44 0 0111.16 11.16l1.26-.2a14.59 14.59 0 00-4.12-8.09z"/><path class="cls-1" d="M13.14 4L13 5.22a9.41 9.41 0 017.82 7.83l1.26-.2A10.69 10.69 0 0013.14 4z"/></g></g></svg>