<svg xmlns="http://www.w3.org/2000/svg" viewBox="0 0 27.52 35.61"><defs><style>.cls-1{fill:#fff}</style></defs><g id="Layer_2" data-name="Layer 2"><g id="レイヤー_1" data-name="レイヤー 1"><path class="cls-1" d="M27.25 6.12A3.51 3.51 0 0026 4.6a3.46 3.46 0 00-1.93-.6h-3v-.5H16.8a3 3 0 000-.43 3.08 3.08 0 00-6.15 0 3 3 0 000 .43H6.41V4h-3a3.4 3.4 0 00-1.35.28A3.4 3.4 0 00.59 5.53 3.46 3.46 0 000 7.46v24.71A3.44 3.44 0 001.52 35a3.38 3.38 0 001.93.58h20.62a3.34 3.34 0 001.34-.27 3.42 3.42 0 001.52-1.24 3.46 3.46 0 00.59-1.93V7.46a3.52 3.52 0 00-.27-1.34zM13.76 1.93a1.15 1.15 0 011.14 1.14 1.18 1.18 0 01-.08.43H12.7a1.18 1.18 0 01-.08-.43 1.15 1.15 0 011.14-1.14zm11.71 30.24a1.37 1.37 0 01-.11.54 1.41 1.41 0 01-1.29.86H3.45a1.42 1.42 0 01-.55-.11 1.45 1.45 0 01-.61-.46 1.41 1.41 0 01-.24-.78V7.46a1.4 1.4 0 01.62-1.16 1.36 1.36 0 01.78-.24h3v.43a1.45 1.45 0 001.42 1.45h11.78a1.45 1.45 0 001.45-1.45v-.43h3a1.33 1.33 0 01.54.11 1.47 1.47 0 01.62.51 1.38 1.38 0 01.24.78z"/><path class="cls-1" d="M6.81 11.87h2.2v2.2h-2.2zm4.83 0h9.07v2.2h-9.07zm-4.83 6.5h2.2v2.2h-2.2zm4.83 0h9.07v2.2h-9.07zm-4.83 6.5h2.2v2.2h-2.2zm4.83 0h9.07v2.2h-9.07z"/></g></g></svg>