<svg xmlns="http://www.w3.org/2000/svg" viewBox="0 0 22 22"><defs><style>.cls-1{fill:#fff;}</style></defs><g id="Layer_2" data-name="Layer 2"><g id="レイヤー_1" data-name="レイヤー 1"><path class="cls-1" d="M15.57,22H6.43A6.44,6.44,0,0,1,0,15.57V6.43A6.44,6.44,0,0,1,6.43,0h9.14A6.44,6.44,0,0,1,22,6.43v9.14A6.44,6.44,0,0,1,15.57,22ZM6.43,2.05A4.39,4.39,0,0,0,2.05,6.43v9.14A4.39,4.39,0,0,0,6.43,20h9.14A4.39,4.39,0,0,0,20,15.57V6.43a4.39,4.39,0,0,0-4.38-4.38Z"/><circle class="cls-1" cx="16.88" cy="5.13" r="1.37"/><path class="cls-1" d="M11,16.69A5.69,5.69,0,1,1,16.69,11,5.69,5.69,0,0,1,11,16.69Zm0-9.33A3.64,3.64,0,1,0,14.64,11,3.65,3.65,0,0,0,11,7.36Z"/></g></g></svg>