<svg xmlns="http://www.w3.org/2000/svg" viewBox="0 0 25.99 25.99"><defs><style>.cls-1{fill:#fff;}</style></defs><g id="Layer_2" data-name="Layer 2"><g id="レイヤー_1" data-name="レイヤー 1"><path class="cls-1" d="M16.05,17.73a.84.84,0,0,0-1.12-.06L13.35,19a.84.84,0,0,1-1.07,0,21.09,21.09,0,0,1-2.83-2.4,20.51,20.51,0,0,1-2.39-2.83.84.84,0,0,1,0-1.07l1.28-1.58a.84.84,0,0,0-.06-1.12l-3-3a.83.83,0,0,0-1.13,0L.3,10.05a.84.84,0,0,0-.2,1s.51,1,1,1.84A37.57,37.57,0,0,0,6.39,19.6a37.48,37.48,0,0,0,6.67,5.31c.8.47,1.84,1,1.84,1a.83.83,0,0,0,1-.2l3.19-3.79a.85.85,0,0,0-.05-1.14Z"/><path class="cls-1" d="M16.8,13.67l1.26-.2a6.62,6.62,0,0,0-1.87-3.66,6.7,6.7,0,0,0-3.67-1.88l-.2,1.26a5.44,5.44,0,0,1,4.48,4.48Z"/><path class="cls-1" d="M21.87,4.13A14.67,14.67,0,0,0,13.77,0l-.2,1.26A13.44,13.44,0,0,1,24.73,12.42l1.26-.2A14.59,14.59,0,0,0,21.87,4.13Z"/><path class="cls-1" d="M13.14,4,13,5.22a9.41,9.41,0,0,1,7.82,7.83l1.26-.2A10.69,10.69,0,0,0,13.14,4Z"/></g></g></svg>