<svg xmlns="http://www.w3.org/2000/svg" viewBox="0 0 27.52 35.61"><defs><style>.cls-1{fill:#fff;}</style></defs><g id="Layer_2" data-name="Layer 2"><g id="レイヤー_1" data-name="レイヤー 1"><path class="cls-1" d="M27.25,6.12A3.51,3.51,0,0,0,26,4.6,3.46,3.46,0,0,0,24.07,4h-3V3.5H16.8a3,3,0,0,0,0-.43,3.08,3.08,0,0,0-6.15,0,3,3,0,0,0,0,.43H6.41V4h-3a3.4,3.4,0,0,0-1.35.28A3.4,3.4,0,0,0,.59,5.53,3.46,3.46,0,0,0,0,7.46V32.17A3.44,3.44,0,0,0,1.52,35a3.38,3.38,0,0,0,1.93.58H24.07a3.34,3.34,0,0,0,1.34-.27,3.42,3.42,0,0,0,1.52-1.24,3.46,3.46,0,0,0,.59-1.93V7.46A3.52,3.52,0,0,0,27.25,6.12ZM13.76,1.93A1.15,1.15,0,0,1,14.9,3.07a1.18,1.18,0,0,1-.08.43H12.7a1.18,1.18,0,0,1-.08-.43A1.15,1.15,0,0,1,13.76,1.93ZM25.47,32.17a1.37,1.37,0,0,1-.11.54,1.41,1.41,0,0,1-1.29.86H3.45a1.42,1.42,0,0,1-.55-.11A1.45,1.45,0,0,1,2.29,33a1.41,1.41,0,0,1-.24-.78V7.46A1.4,1.4,0,0,1,2.67,6.3a1.36,1.36,0,0,1,.78-.24h3v.43A1.45,1.45,0,0,0,7.87,7.94H19.65A1.45,1.45,0,0,0,21.1,6.49V6.06h3a1.33,1.33,0,0,1,.54.11,1.47,1.47,0,0,1,.62.51,1.38,1.38,0,0,1,.24.78Z"/><rect class="cls-1" x="6.81" y="11.87" width="2.2" height="2.2"/><rect class="cls-1" x="11.64" y="11.87" width="9.07" height="2.2"/><rect class="cls-1" x="6.81" y="18.37" width="2.2" height="2.2"/><rect class="cls-1" x="11.64" y="18.37" width="9.07" height="2.2"/><rect class="cls-1" x="6.81" y="24.87" width="2.2" height="2.2"/><rect class="cls-1" x="11.64" y="24.87" width="9.07" height="2.2"/></g></g></svg>